<svg class="bi bi-cd-fill" width="1em" height="1em" fill="#21a4df" version="1.1" viewBox="0 0 16 16" xmlns="http://www.w3.org/2000/svg">
 <path d="m8 0c-0.55201 0-1.0913 0.056634-1.6113 0.16211-3.1349 0.6359-5.5907 3.0917-6.2266 6.2266-0.052548 0.25905-0.094075 0.52336-0.12109 0.79102-6.5892e-5 6.473e-4 6.5738e-5 0.0013058 0 0.0019531-0.027087 0.26897-0.041016 0.54202-0.041016 0.81836 0 0.277 0.013801 0.55072 0.041016 0.82031 0.38101 3.7743 3.3644 6.7577 7.1387 7.1387 0.26959 0.027215 0.54331 0.041016 0.82031 0.041016 0.27634 0 0.54939-0.013928 0.81836-0.041016 0.26894-0.027312 0.53258-0.06781 0.79297-0.12109 3.1349-0.6359 5.5907-3.0917 6.2266-6.2266 0.053155-0.25976 0.093783-0.52275 0.12109-0.79102 6.5e-5 -6.403e-4 -6.4e-5 -0.0013128 0-0.0019531 0.027312-0.26894 0.041016-0.54222 0.041016-0.81836 0-0.27731-0.013386-0.55038-0.041016-0.82031-0.38101-3.7743-3.3644-6.7577-7.1387-7.1387-0.26959-0.027215-0.54331-0.041016-0.82031-0.041016zm2.6777 1.5293c1.7174 0.70778 3.0852 2.0755 3.793 3.793l-2.709 1.3555c-0.40013-1.1437-1.2957-2.0393-2.4395-2.4395l1.3555-2.709zm-2.6777 3.4707c0.16555 0 0.3243 0.023279 0.48242 0.048828 0.1313 0.024608 0.26048 0.055539 0.38672 0.09375 0.95537 0.28919 1.6991 1.0329 1.9883 1.9883 0.038211 0.12624 0.069142 0.25542 0.09375 0.38672 0.025549 0.15812 0.048828 0.31687 0.048828 0.48242 0 1.662-1.338 3-3 3-0.16555 0-0.3243-0.023279-0.48242-0.048828-0.1313-0.024608-0.26048-0.055539-0.38672-0.09375-0.95537-0.28919-1.6991-1.0329-1.9883-1.9883-0.038211-0.12624-0.069142-0.25542-0.09375-0.38672-0.025549-0.15812-0.048828-0.31687-0.048828-0.48242 0-0.20775 0.020715-0.40982 0.060547-0.60547 0.27882-1.3695 1.4852-2.3945 2.9395-2.3945zm0 1c-1.108 0-2 0.892-2 2s0.892 2 2 2 2-0.892 2-2-0.892-2-2-2zm0 1c0.554 0 1 0.446 1 1s-0.446 1-1 1-1-0.446-1-1 0.446-1 1-1zm-3.7617 2.3223c0.40013 1.1437 1.2957 2.0393 2.4395 2.4395l-1.3555 2.709c-1.7174-0.70778-3.0852-2.0755-3.793-3.793l2.709-1.3555z"/>
</svg>
